<?xml version="1.0" ?><svg id="Layer_1" style="enable-background:new 0 0 120 120;" version="1.1" viewBox="0 0 120 120" xml:space="preserve" xmlns="http://www.w3.org/2000/svg" xmlns:xlink="http://www.w3.org/1999/xlink"><style type="text/css">
	.st0{fill:#E2963B;}
	.st1{fill:#FFFFFF;}
</style><path class="st0" d="M33.5,105.7h53c10.6,0,19.2-8.6,19.2-19.2v-53c0-10.6-8.6-19.2-19.2-19.2h-53c-10.6,0-19.2,8.6-19.2,19.2v53  C14.3,97.1,22.9,105.7,33.5,105.7z"/><g><path class="st1" d="M73.8,25.6H46.2c-11.4,0-20.6,9.3-20.6,20.6v27.5c0,11.4,9.3,20.6,20.6,20.6h27.5c11.4,0,20.6-9.3,20.6-20.6   V46.2C94.4,34.8,85.2,25.6,73.8,25.6z M88.3,73.8c0,8-6.5,14.5-14.5,14.5H46.2c-8,0-14.5-6.5-14.5-14.5V46.2   c0-8,6.5-14.5,14.5-14.5h27.5c8,0,14.5,6.5,14.5,14.5V73.8z"/><path class="st1" d="M77.5,56.9H63.1V42.5c0-1.7-1.4-3.1-3.1-3.1c-1.7,0-3.1,1.4-3.1,3.1v14.4H42.5c-1.7,0-3.1,1.4-3.1,3.1   c0,1.7,1.4,3.1,3.1,3.1h14.4v14.4c0,1.7,1.4,3.1,3.1,3.1c1.7,0,3.1-1.4,3.1-3.1V63.1h14.4c1.7,0,3.1-1.4,3.1-3.1   C80.5,58.3,79.2,56.9,77.5,56.9z"/></g></svg>